<svg xmlns="http://www.w3.org/2000/svg" width="484" height="809.536" viewBox="0 0 484 809.536">
  <g id="ilus2" transform="translate(-115 -47.839)">
    <g id="ilus2-2" data-name="ilus2">
      <g id="Rectangle_59" data-name="Rectangle 59" transform="translate(161.838 67.737) rotate(-20)" fill="#fff" stroke="#95ce67" stroke-width="1">
        <rect width="20.17" height="18.489" stroke="none"/>
        <rect x="0.5" y="0.5" width="19.17" height="17.489" fill="none"/>
      </g>
      <g id="Rectangle_60" data-name="Rectangle 60" transform="translate(158.838 85.347) rotate(-20)" fill="#fff" stroke="#95ce67" stroke-width="1">
        <rect width="20.17" height="18.489" stroke="none"/>
        <rect x="0.5" y="0.5" width="19.17" height="17.489" fill="none"/>
      </g>
      <path id="Path_237" data-name="Path 237" d="M231,1859.217s153.832,37.408,347,0" transform="translate(-92 -1800)" fill="none" stroke="#95ce67" stroke-width="1"/>
      <g id="Group_30" data-name="Group 30">
        <path id="Path_238" data-name="Path 238" d="M373.543,1975.3H415l-6.448-21.63h-28.4Z" transform="translate(112 -1777)" fill="#6ca43f"/>
        <path id="Path_239" data-name="Path 239" d="M390.175,1959.675s-5.746-33.153-6.84-36.436S415.2,1920.5,415,1921.6s-6.219,38.078-6.219,38.078Z" transform="translate(107 -1783)" fill="none" stroke="#6ca43f" stroke-width="1"/>
        <path id="Path_240" data-name="Path 240" d="M382.308,1922.9l-7.566,1.619,6.1-5.978s17.311-7.971,32.256-3.363.747,6.85.747,6.85Z" transform="translate(108 -1783)" fill="#6ca43f"/>
      </g>
      <g id="Rectangle_39" data-name="Rectangle 39" transform="translate(139 60.151) rotate(-20)" fill="#fff" stroke="#95ce67" stroke-width="1">
        <rect width="36" height="33" stroke="none"/>
        <rect x="0.5" y="0.5" width="35" height="32" fill="none"/>
      </g>
      <g id="Rectangle_45" data-name="Rectangle 45" transform="translate(219.217 85.151) rotate(-20)" fill="#fff" stroke="#95ce67" stroke-width="1">
        <rect width="36" height="33" stroke="none"/>
        <rect x="0.5" y="0.5" width="35" height="32" fill="none"/>
      </g>
      <g id="Rectangle_49" data-name="Rectangle 49" transform="translate(295.217 88.151) rotate(-20)" fill="#fff" stroke="#95ce67" stroke-width="1">
        <rect width="36" height="33" stroke="none"/>
        <rect x="0.5" y="0.5" width="35" height="32" fill="none"/>
      </g>
      <g id="Rectangle_53" data-name="Rectangle 53" transform="translate(373.217 88.151) rotate(-20)" fill="#fff" stroke="#95ce67" stroke-width="1">
        <rect width="36" height="33" stroke="none"/>
        <rect x="0.5" y="0.5" width="35" height="32" fill="none"/>
      </g>
      <g id="Rectangle_57" data-name="Rectangle 57" transform="translate(419.217 74.151) rotate(-20)" fill="#fff" stroke="#95ce67" stroke-width="1">
        <rect width="36" height="33" stroke="none"/>
        <rect x="0.5" y="0.5" width="35" height="32" fill="none"/>
      </g>
      <g id="Rectangle_41" data-name="Rectangle 41" transform="matrix(0.998, 0.07, -0.07, 0.998, 190.871, 72.298)" fill="#fff" stroke="#95ce67" stroke-width="1">
        <rect width="36" height="33" stroke="none"/>
        <rect x="0.5" y="0.5" width="35" height="32" fill="none"/>
      </g>
      <g id="Rectangle_43" data-name="Rectangle 43" transform="matrix(0.998, 0.07, -0.07, 0.998, 271.088, 76.298)" fill="#fff" stroke="#95ce67" stroke-width="1">
        <rect width="36" height="33" stroke="none"/>
        <rect x="0.5" y="0.5" width="35" height="32" fill="none"/>
      </g>
      <g id="Rectangle_47" data-name="Rectangle 47" transform="matrix(0.998, 0.07, -0.07, 0.998, 347.088, 79.298)" fill="#fff" stroke="#95ce67" stroke-width="1">
        <rect width="36" height="33" stroke="none"/>
        <rect x="0.5" y="0.5" width="35" height="32" fill="none"/>
      </g>
      <g id="Rectangle_51" data-name="Rectangle 51" transform="matrix(0.998, 0.07, -0.07, 0.998, 425.088, 79.298)" fill="#fff" stroke="#95ce67" stroke-width="1">
        <rect width="36" height="33" stroke="none"/>
        <rect x="0.5" y="0.5" width="35" height="32" fill="none"/>
      </g>
      <g id="Rectangle_55" data-name="Rectangle 55" transform="matrix(0.998, 0.07, -0.07, 0.998, 471.088, 65.298)" fill="#fff" stroke="#95ce67" stroke-width="1">
        <rect width="36" height="33" stroke="none"/>
        <rect x="0.5" y="0.5" width="35" height="32" fill="none"/>
      </g>
      <g id="Rectangle_40" data-name="Rectangle 40" transform="translate(139 95.151) rotate(-20)" fill="#fff" stroke="#95ce67" stroke-width="1">
        <rect width="36" height="33" stroke="none"/>
        <rect x="0.5" y="0.5" width="35" height="32" fill="none"/>
      </g>
      <g id="Rectangle_46" data-name="Rectangle 46" transform="translate(219.217 120.151) rotate(-20)" fill="#fff" stroke="#95ce67" stroke-width="1">
        <rect width="36" height="33" stroke="none"/>
        <rect x="0.5" y="0.5" width="35" height="32" fill="none"/>
      </g>
      <g id="Rectangle_50" data-name="Rectangle 50" transform="translate(295.217 123.151) rotate(-20)" fill="#fff" stroke="#95ce67" stroke-width="1">
        <rect width="36" height="33" stroke="none"/>
        <rect x="0.5" y="0.5" width="35" height="32" fill="none"/>
      </g>
      <g id="Rectangle_54" data-name="Rectangle 54" transform="translate(373.217 123.151) rotate(-20)" fill="#fff" stroke="#95ce67" stroke-width="1">
        <rect width="36" height="33" stroke="none"/>
        <rect x="0.5" y="0.5" width="35" height="32" fill="none"/>
      </g>
      <g id="Rectangle_58" data-name="Rectangle 58" transform="translate(419.217 109.151) rotate(-20)" fill="#fff" stroke="#95ce67" stroke-width="1">
        <rect width="36" height="33" stroke="none"/>
        <rect x="0.5" y="0.5" width="35" height="32" fill="none"/>
      </g>
      <g id="Rectangle_42" data-name="Rectangle 42" transform="matrix(0.998, 0.07, -0.07, 0.998, 176.635, 104.272)" fill="#fff" stroke="#95ce67" stroke-width="1">
        <rect width="36" height="33" stroke="none"/>
        <rect x="0.5" y="0.5" width="35" height="32" fill="none"/>
      </g>
      <g id="Rectangle_44" data-name="Rectangle 44" transform="matrix(0.998, 0.07, -0.07, 0.998, 256.852, 108.272)" fill="#fff" stroke="#95ce67" stroke-width="1">
        <rect width="36" height="33" stroke="none"/>
        <rect x="0.5" y="0.5" width="35" height="32" fill="none"/>
      </g>
      <g id="Rectangle_48" data-name="Rectangle 48" transform="matrix(0.998, 0.07, -0.07, 0.998, 332.852, 111.272)" fill="#fff" stroke="#95ce67" stroke-width="1">
        <rect width="36" height="33" stroke="none"/>
        <rect x="0.5" y="0.5" width="35" height="32" fill="none"/>
      </g>
      <g id="Rectangle_52" data-name="Rectangle 52" transform="matrix(0.998, 0.07, -0.07, 0.998, 410.852, 111.272)" fill="#fff" stroke="#95ce67" stroke-width="1">
        <rect width="36" height="33" stroke="none"/>
        <rect x="0.5" y="0.5" width="35" height="32" fill="none"/>
      </g>
      <g id="Rectangle_56" data-name="Rectangle 56" transform="matrix(0.998, 0.07, -0.07, 0.998, 456.852, 97.272)" fill="#fff" stroke="#95ce67" stroke-width="1">
        <rect width="36" height="33" stroke="none"/>
        <rect x="0.5" y="0.5" width="35" height="32" fill="none"/>
      </g>
      <path id="Path_241" data-name="Path 241" d="M3.3,1.886C2.118,8.337-1.826,35.678,1,40.779c2.686,4.851,13.147,12.586,24.662,6.9.506-.25,1.106-.573,1.717-.93,12.463-7.287,17-39.142,17-39.142S4.485-4.566,3.3,1.886Z" transform="translate(347.823 108.973) rotate(-11)" fill="#f3dfb7"/>
      <path id="Path_249" data-name="Path 249" d="M12.927,187.161C8.292,161.9-7.15,54.838,3.909,34.864,14.426,15.869,55.389-14.42,100.482,7.839c1.983.978,4.332,2.243,6.724,3.641,48.8,28.534,66.583,153.272,66.583,153.272S17.561,212.424,12.927,187.161Z" transform="translate(285.596 664.211) rotate(-169)" fill="#f3dfb7"/>
      <path id="Path_258" data-name="Path 258" d="M7.419,4.237c-2.66,14.5-11.522,75.941-5.175,87.4,6.036,10.9,29.545,28.284,55.424,15.51,1.138-.561,2.486-1.287,3.859-2.09C89.533,88.686,99.738,17.1,99.738,17.1S10.078-10.261,7.419,4.237Z" transform="translate(479.79 433.888) rotate(-11)" fill="#f3dfb7"/>
      <path id="Path_242" data-name="Path 242" d="M46.273,14.354S50.84,1.313,42.566.31.019.811.019,3.82-.817,14.688,8.546,16.861,46.273,14.354,46.273,14.354Z" transform="translate(392.736 115.69) rotate(-179)"/>
      <path id="Path_247" data-name="Path 247" d="M339.78,1956.329s-20.168,4.244-20.327-.063,3.657-15.646,1.226-15.646h-5.989s-3.935,20.945,1.218,21.191,26.99,2.454,26.254-3.067S339.78,1956.329,339.78,1956.329Z" transform="translate(16 -1791)" fill="#f3dfb7"/>
      <path id="Path_248" data-name="Path 248" d="M315.277,1956.266s20.721,4.306,20.881,0-4.21-15.708-1.779-15.708h5.989s4.488,21.008-.665,21.253-26.99,2.454-26.254-3.067S315.277,1956.266,315.277,1956.266Z" transform="translate(70 -1789)" fill="#f3dfb7"/>
      <path id="Path_246" data-name="Path 246" d="M12.017,0S1.277,2.548.242,4.5,1.713,10.9,3.662,11.459s10.443,0,10.026-1.392S12.017,0,12.017,0Z" transform="translate(340.931 160.897) rotate(3)" fill="#95ce67"/>
      <path id="Path_245" data-name="Path 245" d="M287.538,2322s10.74,2.548,11.775,4.5-1.471,6.405-3.421,6.962-10.443,0-10.026-1.393S287.538,2322,287.538,2322Z" transform="translate(103.375 -2158.39)" fill="#95ce67"/>
      <path id="Union_17" data-name="Union 17" d="M0,63.44,44.257,5.79V63.44A46.806,46.806,0,0,1,21.8,69.157,44.52,44.52,0,0,1,0,63.44ZM0,5.716s21.02-12.862,44.257,0L0,63.438Z" transform="translate(346.656 157.843)" fill="#95ce67"/>
      <g id="Group_29" data-name="Group 29" transform="translate(-544 -342)">
        <g id="Rectangle_33" data-name="Rectangle 33" transform="translate(711 557)" fill="#fff" stroke="#95ce67" stroke-width="5">
          <rect width="388" height="165" stroke="none"/>
          <rect x="2.5" y="2.5" width="383" height="160" fill="none"/>
        </g>
        <rect id="Rectangle_34" data-name="Rectangle 34" width="25" height="165" transform="translate(711 557)" fill="#95ce67"/>
        <rect id="Rectangle_35" data-name="Rectangle 35" width="25" height="165" transform="translate(1074 557)" fill="#95ce67"/>
        <rect id="Rectangle_31" data-name="Rectangle 31" width="28" height="66" transform="translate(683 524)" fill="#95ce67"/>
        <rect id="Rectangle_36" data-name="Rectangle 36" width="28" height="66" transform="translate(1099 524)" fill="#95ce67"/>
        <rect id="Rectangle_32" data-name="Rectangle 32" width="388" height="23" transform="translate(711 536)" fill="#95ce67"/>
      </g>
      <g id="Group_31" data-name="Group 31">
        <circle id="Ellipse_11" data-name="Ellipse 11" cx="4" cy="4" r="4" transform="translate(330 147)" fill="#f3dfb7"/>
        <ellipse id="Ellipse_12" data-name="Ellipse 12" cx="2" cy="1.5" rx="2" ry="1.5" transform="matrix(0.891, 0.454, -0.454, 0.891, 329.899, 148.256)" fill="#f3dfb7"/>
        <ellipse id="Ellipse_13" data-name="Ellipse 13" cx="2.5" cy="1" rx="2.5" ry="1" transform="translate(332.06 145.306) rotate(79)" fill="#f3dfb7"/>
        <ellipse id="Ellipse_14" data-name="Ellipse 14" cx="2.5" cy="1" rx="2.5" ry="1" transform="matrix(0.017, 1, -1, 0.017, 335.511, 144.433)" fill="#f3dfb7"/>
        <ellipse id="Ellipse_15" data-name="Ellipse 15" cx="3" cy="1" rx="3" ry="1" transform="translate(338.303 145.784) rotate(104)" fill="#f3dfb7"/>
        <ellipse id="Ellipse_16" data-name="Ellipse 16" cx="2.5" cy="1" rx="2.5" ry="1" transform="matrix(-0.559, 0.829, -0.829, -0.559, 339.555, 149.354)" fill="#f3dfb7"/>
      </g>
      <g id="Group_32" data-name="Group 32" transform="translate(73 2)">
        <circle id="Ellipse_11-2" data-name="Ellipse 11" cx="4" cy="4" r="4" transform="translate(330 147)" fill="#f3dfb7"/>
        <ellipse id="Ellipse_12-2" data-name="Ellipse 12" cx="2" cy="1.5" rx="2" ry="1.5" transform="matrix(0.891, 0.454, -0.454, 0.891, 329.899, 148.256)" fill="#f3dfb7"/>
        <ellipse id="Ellipse_13-2" data-name="Ellipse 13" cx="2.5" cy="1" rx="2.5" ry="1" transform="translate(332.06 145.306) rotate(79)" fill="#f3dfb7"/>
        <ellipse id="Ellipse_14-2" data-name="Ellipse 14" cx="2.5" cy="1" rx="2.5" ry="1" transform="matrix(0.017, 1, -1, 0.017, 335.511, 144.433)" fill="#f3dfb7"/>
        <ellipse id="Ellipse_15-2" data-name="Ellipse 15" cx="3" cy="1" rx="3" ry="1" transform="translate(338.303 145.784) rotate(104)" fill="#f3dfb7"/>
        <ellipse id="Ellipse_16-2" data-name="Ellipse 16" cx="2.5" cy="1" rx="2.5" ry="1" transform="matrix(-0.559, 0.829, -0.829, -0.559, 339.555, 149.354)" fill="#f3dfb7"/>
      </g>
      <g id="Group_34" data-name="Group 34" transform="translate(312.723 623.893)">
        <circle id="Ellipse_11-3" data-name="Ellipse 11" cx="11.5" cy="11.5" r="11.5" transform="translate(3.277 7.107)" fill="#f3dfb7"/>
        <ellipse id="Ellipse_12-3" data-name="Ellipse 12" cx="5.599" cy="4.199" rx="5.599" ry="4.199" transform="matrix(0.891, 0.454, -0.454, 0.891, 3.813, 10.7)" fill="#f3dfb7"/>
        <ellipse id="Ellipse_13-3" data-name="Ellipse 13" cx="6.999" cy="2.799" rx="6.999" ry="2.799" transform="translate(9.861 2.442) rotate(79)" fill="#f3dfb7"/>
        <ellipse id="Ellipse_14-3" data-name="Ellipse 14" cx="6.999" cy="2.799" rx="6.999" ry="2.799" transform="matrix(0.017, 1, -1, 0.017, 19.524, 0)" fill="#f3dfb7"/>
        <ellipse id="Ellipse_15-3" data-name="Ellipse 15" cx="8.398" cy="2.799" rx="8.398" ry="2.799" transform="translate(27.34 3.782) rotate(104)" fill="#f3dfb7"/>
        <ellipse id="Ellipse_16-3" data-name="Ellipse 16" cx="6.999" cy="2.799" rx="6.999" ry="2.799" transform="matrix(-0.559, 0.829, -0.829, -0.559, 30.843, 13.776)" fill="#f3dfb7"/>
      </g>
      <g id="Group_36" data-name="Group 36" transform="matrix(0.966, -0.259, 0.259, 0.966, 451.447, 535.013)">
        <ellipse id="Ellipse_11-4" data-name="Ellipse 11" cx="6.52" cy="6.52" rx="6.52" ry="6.52" transform="translate(2.521 3.97)" fill="#f3dfb7"/>
        <ellipse id="Ellipse_12-4" data-name="Ellipse 12" cx="3.213" cy="2.41" rx="3.213" ry="2.41" transform="matrix(-0.891, 0.454, -0.454, -0.891, 17.701, 10.435)" fill="#f3dfb7"/>
        <ellipse id="Ellipse_13-4" data-name="Ellipse 13" cx="4.017" cy="1.607" rx="4.017" ry="1.607" transform="translate(15.196 2.014) rotate(101)" fill="#f3dfb7"/>
        <ellipse id="Ellipse_14-4" data-name="Ellipse 14" cx="4.017" cy="1.607" rx="4.017" ry="1.607" transform="matrix(-0.017, 1, -1, -0.017, 9.709, 0.056)" fill="#f3dfb7"/>
        <ellipse id="Ellipse_15-4" data-name="Ellipse 15" cx="4.82" cy="1.607" rx="4.82" ry="1.607" transform="translate(5.128 1.393) rotate(76)" fill="#f3dfb7"/>
        <ellipse id="Ellipse_16-4" data-name="Ellipse 16" cx="4.017" cy="1.607" rx="4.017" ry="1.607" transform="translate(2.664 6.109) rotate(56)" fill="#f3dfb7"/>
      </g>
      <rect id="Rectangle_37" data-name="Rectangle 37" width="6.16" height="14.132" rx="3.08" transform="translate(367.516 151.652)" fill="#f3dfb7"/>
      <rect id="Rectangle_62" data-name="Rectangle 62" width="13.179" height="28.802" rx="6.589" transform="translate(526.261 526.623)" fill="#f3dfb7"/>
      <path id="Path_253" data-name="Path 253" d="M153.775,2339.371c5.406-11.2,158.517-18.685,171.882,5.67,5.493,10.01-5.713,47.189-38.517,57.041-46.091,13.842-126.941,8.361-127.9-12.394C157.618,2354.45,148.369,2350.569,153.775,2339.371Z" transform="translate(-17.259 -1867.905)"/>
      <path id="Path_265" data-name="Path 265" d="M25.776,33.634S11.969,23.918,11.117,21.02,11.8,4.486,10.094,2.952s-10.739-5.8-10.057,0,0,21.478,4.091,23.694S21.855,43.521,23.9,38.748,25.776,33.634,25.776,33.634Z" transform="matrix(0.766, -0.643, 0.643, 0.766, 458.834, 548.975)" fill="#f3dfb7"/>
      <path id="Path_264" data-name="Path 264" d="M12.8,4s-2.39-4-5.655-4S-1.9,7.527.615,8.7c.65.3,1.977,2.224,3.643,3.584,3.925,3.2,9.926,7.5,10.671,4.884C15.934,13.643,12.8,4,12.8,4Z" transform="translate(488.588 561.243) rotate(-40)" fill="#84aa2b"/>
      <path id="Path_262" data-name="Path 262" d="M164.366,2478.111s10.5-8.3,10.332-11.368-4.432-13.807-6.989-14.66-4.432,2.727-4.432,2.727,6.477,8.353,5.284,11.25-9.887,8.012-8.864,9.205S164.366,2478.111,164.366,2478.111Z" transform="translate(404.641 -1915.506)" fill="#f3dfb7"/>
      <g id="Group_33" data-name="Group 33" transform="translate(139.613 648.115) rotate(-51)">
        <g id="Group_13" data-name="Group 13" transform="translate(0 0)">
          <rect id="Rectangle_6" data-name="Rectangle 6" width="18.044" height="30.237" rx="2" transform="matrix(0.921, 0.391, -0.391, 0.921, 11.814, 0)" fill="#564141"/>
          <rect id="Rectangle_7" data-name="Rectangle 7" width="12.192" height="21.458" transform="matrix(0.921, 0.391, -0.391, 0.921, 12.79, 5.365)" fill="#a48888"/>
        </g>
        <g id="Ellipse_5" data-name="Ellipse 5" transform="translate(6.966 28.032)" fill="#fff" stroke="#707070" stroke-width="1">
          <ellipse cx="1.463" cy="1.463" rx="1.463" ry="1.463" stroke="none"/>
          <ellipse cx="1.463" cy="1.463" rx="0.963" ry="0.963" fill="none"/>
        </g>
      </g>
      <g id="Group_35" data-name="Group 35" transform="translate(569.316 546.848) rotate(-129)">
        <g id="Group_13-2" data-name="Group 13" transform="translate(0 0)">
          <rect id="Rectangle_6-2" data-name="Rectangle 6" width="10.356" height="17.353" rx="2" transform="matrix(0.921, -0.391, 0.391, 0.921, 0, 4.046)" fill="#564141"/>
          <rect id="Rectangle_7-2" data-name="Rectangle 7" width="6.997" height="12.315" transform="matrix(0.921, -0.391, 0.391, 0.921, 2.528, 5.605)" fill="#a48888"/>
        </g>
        <g id="Ellipse_5-2" data-name="Ellipse 5" transform="translate(3.998 2.253)" fill="#fff" stroke="#707070" stroke-width="1">
          <ellipse cx="0.84" cy="0.84" rx="0.84" ry="0.84" stroke="none"/>
          <ellipse cx="0.84" cy="0.84" rx="0.34" ry="0.34" fill="none"/>
        </g>
      </g>
      <rect id="Rectangle_61" data-name="Rectangle 61" width="22.963" height="50.185" rx="7" transform="translate(218.78 634.826)" fill="#f3dfb7"/>
      <path id="Union_18" data-name="Union 18" d="M0,169.735,118.535,15.491V169.735s-25.02,15.3-60.143,15.295A119.338,119.338,0,0,1,0,169.735ZM0,15.294s56.3-34.412,118.535,0L0,169.73Z" transform="translate(169.14 672.345)" fill="#2baa49"/>
      <path id="Path_255" data-name="Path 255" d="M256.487,2500.646s24.058-16.93,25.543-21.979-1.188-28.81,1.782-31.483,18.712-10.1,17.524,0,0,37.424-7.128,41.285-30.89,29.4-34.454,21.088S256.487,2500.646,256.487,2500.646Z" transform="translate(36.467 -1809.655)" fill="#f3dfb7"/>
      <path id="Path_254" data-name="Path 254" d="M254.694,2480.932s4.165-6.968,9.853-6.968,15.752,13.116,11.377,15.166c-1.133.53-3.444,3.875-6.348,6.246-6.838,5.58-17.3,13.065-18.593,8.509C249.232,2497.737,254.694,2480.932,254.694,2480.932Z" transform="translate(25.885 -1788.981)" fill="#2baa49"/>
      <path id="Path_257" data-name="Path 257" d="M177.622,2497.532s-18.3-14.461-18-19.808,7.722-24.058,12.178-25.543,7.722,4.752,7.722,4.752-11.287,14.554-9.207,19.6,17.227,13.96,15.445,16.039S177.622,2497.532,177.622,2497.532Z" transform="translate(-10.36 -1800.009)" fill="#f3dfb7"/>
      <path id="Path_256" data-name="Path 256" d="M272.938,2480.932s-4.165-6.968-9.853-6.968-15.752,13.116-11.377,15.166c1.133.53,3.444,3.875,6.348,6.246,6.838,5.58,17.3,13.065,18.593,8.509C278.4,2497.737,272.938,2480.932,272.938,2480.932Z" transform="translate(-89.232 -1790.496)" fill="#2baa49"/>
      <circle id="Ellipse_17" data-name="Ellipse 17" cx="3" cy="3" r="3" transform="translate(159 660)" fill="#f3dfb7"/>
      <rect id="Rectangle_63" data-name="Rectangle 63" width="27" height="106" rx="13.5" transform="translate(500 635)" fill="#366b0d"/>
      <rect id="Rectangle_64" data-name="Rectangle 64" width="27" height="99" rx="13.5" transform="translate(541 636)" fill="#366b0d"/>
      <path id="Union_19" data-name="Union 19" d="M0,8.778,68.028,97.3V8.778A72,72,0,0,0,33.511,0,68.489,68.489,0,0,0,0,8.778ZM0,97.412s32.311,19.749,68.028,0L0,8.781Z" transform="translate(567.929 654.345) rotate(180)" fill="#84aa2b"/>
      <path id="Path_266" data-name="Path 266" d="M471.388,2325.545s4.2,132.8-10.77,133.874-50.751,28.879-64.951,0-33.13-100.406-14.2-133.874S471.388,2325.545,471.388,2325.545Z" transform="translate(113.159 -1896.17)"/>
    </g>
    <g id="Group_66" data-name="Group 66" transform="translate(131.008 -36)">
      <rect id="Rectangle_103" data-name="Rectangle 103" width="18.008" height="45.617" rx="2.168" transform="translate(211.83 318.379) rotate(3.481)" fill="#fff" stroke="#95ce67" stroke-miterlimit="10" stroke-width="1"/>
      <g id="Group_65" data-name="Group 65" transform="translate(203 302)">
        <g id="Group_64" data-name="Group 64" transform="translate(23.963 16.052)">
          <ellipse id="Ellipse_22" data-name="Ellipse 22" cx="3.761" cy="2.393" rx="3.761" ry="2.393" transform="translate(3.121)" fill="#95ce67" stroke="#95ce67" stroke-miterlimit="10" stroke-width="1"/>
          <path id="Path_290" data-name="Path 290" d="M207.356,303.4c-4.961,4.1-13.609,0-13.609,0s.452-25.882.021-28.441,6.039-3.735,6.039-3.735,7.441-.191,7.549,1S207.356,303.4,207.356,303.4Z" transform="translate(-193.747 -268.489)" fill="#fff" stroke="#95ce67" stroke-miterlimit="10" stroke-width="1"/>
        </g>
        <g id="Group_63" data-name="Group 63" transform="translate(6.852 17.316)">
          <circle id="Ellipse_23" data-name="Ellipse 23" cx="7.765" cy="7.765" r="7.765" transform="translate(1.329 1.278)" fill="#c69c6d"/>
          <path id="Path_291" data-name="Path 291" d="M181.184,288.53s-1.186,4.26-3.505,5.068" transform="translate(-168.654 -278.356)" fill="none" stroke="#d9e021" stroke-miterlimit="10" stroke-width="0.75"/>
          <path id="Path_292" data-name="Path 292" d="M186.039,287.988s-1.186,4.26-3.5,5.068" transform="translate(-171.066 -278.086)" fill="none" stroke="#d9e021" stroke-miterlimit="10" stroke-width="0.75"/>
          <path id="Path_293" data-name="Path 293" d="M186.878,293.023s-1.186,4.26-3.5,5.069" transform="translate(-171.482 -280.587)" fill="none" stroke="#d9e021" stroke-miterlimit="10" stroke-width="0.75"/>
          <path id="Path_294" data-name="Path 294" d="M195.772,290.115s-1.186,4.26-3.5,5.068" transform="translate(-175.9 -279.143)" fill="none" stroke="#d9e021" stroke-miterlimit="10" stroke-width="0.75"/>
          <path id="Path_295" data-name="Path 295" d="M189.521,287.988s-1.186,4.26-3.5,5.068" transform="translate(-172.795 -278.086)" fill="none" stroke="#d9e021" stroke-miterlimit="10" stroke-width="0.75"/>
          <path id="Path_296" data-name="Path 296" d="M193.842,285.637s-1.187,4.26-3.505,5.068" transform="translate(-174.942 -276.919)" fill="none" stroke="#d9e021" stroke-miterlimit="10" stroke-width="0.75"/>
          <path id="Path_297" data-name="Path 297" d="M176.221,287.73s-1.186,4.26-3.5,5.068" transform="translate(-166.189 -277.958)" fill="none" stroke="#d9e021" stroke-miterlimit="10" stroke-width="0.75"/>
          <path id="Path_298" data-name="Path 298" d="M181.075,287.187s-1.186,4.26-3.505,5.069" transform="translate(-168.6 -277.688)" fill="none" stroke="#d9e021" stroke-miterlimit="10" stroke-width="0.75"/>
          <path id="Path_299" data-name="Path 299" d="M181.915,292.223s-1.186,4.26-3.5,5.068" transform="translate(-169.017 -280.19)" fill="none" stroke="#d9e021" stroke-miterlimit="10" stroke-width="0.75"/>
          <path id="Path_300" data-name="Path 300" d="M190.809,289.315s-1.186,4.26-3.5,5.068" transform="translate(-173.435 -278.746)" fill="none" stroke="#d9e021" stroke-miterlimit="10" stroke-width="0.75"/>
          <path id="Path_301" data-name="Path 301" d="M184.558,287.187s-1.186,4.26-3.5,5.069" transform="translate(-170.33 -277.688)" fill="none" stroke="#d9e021" stroke-miterlimit="10" stroke-width="0.75"/>
          <path id="Path_302" data-name="Path 302" d="M188.879,284.837s-1.186,4.26-3.5,5.068" transform="translate(-172.476 -276.521)" fill="none" stroke="#d9e021" stroke-miterlimit="10" stroke-width="0.75"/>
          <path id="Path_303" data-name="Path 303" d="M183.066,286.929s-1.187,4.26-3.505,5.069" transform="translate(-169.589 -277.56)" fill="none" stroke="#d9e021" stroke-miterlimit="10" stroke-width="0.75"/>
          <path id="Path_304" data-name="Path 304" d="M187.921,286.387s-1.186,4.26-3.5,5.068" transform="translate(-172.001 -277.291)" fill="none" stroke="#d9e021" stroke-miterlimit="10" stroke-width="0.75"/>
          <path id="Path_305" data-name="Path 305" d="M188.76,291.423s-1.186,4.26-3.5,5.068" transform="translate(-172.417 -279.793)" fill="none" stroke="#d9e021" stroke-miterlimit="10" stroke-width="0.75"/>
          <path id="Path_306" data-name="Path 306" d="M197.654,288.514s-1.186,4.26-3.5,5.069" transform="translate(-176.835 -278.348)" fill="none" stroke="#d9e021" stroke-miterlimit="10" stroke-width="0.75"/>
          <path id="Path_307" data-name="Path 307" d="M191.4,286.387s-1.186,4.26-3.5,5.068" transform="translate(-173.73 -277.291)" fill="none" stroke="#d9e021" stroke-miterlimit="10" stroke-width="0.75"/>
          <path id="Path_308" data-name="Path 308" d="M195.724,284.037s-1.186,4.26-3.5,5.068" transform="translate(-175.877 -276.124)" fill="none" stroke="#d9e021" stroke-miterlimit="10" stroke-width="0.75"/>
          <path id="Path_309" data-name="Path 309" d="M177.984,283.236s-1.186,4.26-3.5,5.069" transform="translate(-167.064 -275.726)" fill="none" stroke="#d9e021" stroke-miterlimit="10" stroke-width="0.75"/>
          <path id="Path_310" data-name="Path 310" d="M182.838,282.694s-1.187,4.26-3.505,5.068" transform="translate(-169.476 -275.457)" fill="none" stroke="#d9e021" stroke-miterlimit="10" stroke-width="0.75"/>
          <path id="Path_311" data-name="Path 311" d="M183.677,287.73s-1.187,4.26-3.505,5.068" transform="translate(-169.892 -277.958)" fill="none" stroke="#d9e021" stroke-miterlimit="10" stroke-width="0.75"/>
          <path id="Path_312" data-name="Path 312" d="M192.571,284.821s-1.186,4.26-3.505,5.069" transform="translate(-174.31 -276.513)" fill="none" stroke="#d9e021" stroke-miterlimit="10" stroke-width="0.75"/>
          <path id="Path_313" data-name="Path 313" d="M186.32,282.694s-1.186,4.26-3.505,5.068" transform="translate(-171.205 -275.457)" fill="none" stroke="#d9e021" stroke-miterlimit="10" stroke-width="0.75"/>
          <path id="Path_314" data-name="Path 314" d="M190.642,280.343s-1.186,4.26-3.5,5.069" transform="translate(-173.352 -274.289)" fill="none" stroke="#d9e021" stroke-miterlimit="10" stroke-width="0.75"/>
          <path id="Path_315" data-name="Path 315" d="M182.308,281.927s-1.186,4.26-3.5,5.068" transform="translate(-169.212 -275.076)" fill="none" stroke="#d9e021" stroke-miterlimit="10" stroke-width="0.75"/>
          <path id="Path_316" data-name="Path 316" d="M187.163,281.385s-1.186,4.26-3.5,5.068" transform="translate(-171.624 -274.806)" fill="none" stroke="#d9e021" stroke-miterlimit="10" stroke-width="0.75"/>
          <path id="Path_317" data-name="Path 317" d="M188,286.42s-1.186,4.26-3.5,5.069" transform="translate(-172.041 -277.307)" fill="none" stroke="#d9e021" stroke-miterlimit="10" stroke-width="0.75"/>
          <path id="Path_318" data-name="Path 318" d="M196.9,283.512s-1.186,4.26-3.5,5.068" transform="translate(-176.459 -275.863)" fill="none" stroke="#d9e021" stroke-miterlimit="10" stroke-width="0.75"/>
          <path id="Path_319" data-name="Path 319" d="M190.645,281.385s-1.186,4.26-3.5,5.068" transform="translate(-173.354 -274.806)" fill="none" stroke="#d9e021" stroke-miterlimit="10" stroke-width="0.75"/>
          <path id="Path_320" data-name="Path 320" d="M194.966,279.034s-1.186,4.26-3.5,5.068" transform="translate(-175.5 -273.639)" fill="none" stroke="#d9e021" stroke-miterlimit="10" stroke-width="0.75"/>
          <path id="Path_321" data-name="Path 321" d="M176.216,277.809s1.186,4.26,3.5,5.068" transform="translate(-167.927 -273.03)" fill="none" stroke="#d9e021" stroke-miterlimit="10" stroke-width="0.75"/>
          <path id="Path_322" data-name="Path 322" d="M171.361,277.267s1.187,4.26,3.505,5.068" transform="translate(-165.516 -272.761)" fill="none" stroke="#d9e021" stroke-miterlimit="10" stroke-width="0.75"/>
          <path id="Path_323" data-name="Path 323" d="M170.522,282.3s1.186,4.26,3.505,5.069" transform="translate(-165.099 -275.262)" fill="none" stroke="#d9e021" stroke-miterlimit="10" stroke-width="0.75"/>
          <path id="Path_324" data-name="Path 324" d="M161.628,279.394s1.186,4.26,3.505,5.068" transform="translate(-160.681 -273.817)" fill="none" stroke="#d9e021" stroke-miterlimit="10" stroke-width="0.75"/>
          <path id="Path_325" data-name="Path 325" d="M167.879,277.267s1.186,4.26,3.505,5.068" transform="translate(-163.786 -272.761)" fill="none" stroke="#d9e021" stroke-miterlimit="10" stroke-width="0.75"/>
          <path id="Path_326" data-name="Path 326" d="M163.558,274.916s1.186,4.26,3.5,5.069" transform="translate(-161.64 -271.593)" fill="none" stroke="#d9e021" stroke-miterlimit="10" stroke-width="0.75"/>
          <path id="Path_327" data-name="Path 327" d="M181.179,277.009s1.186,4.26,3.5,5.068" transform="translate(-170.393 -272.633)" fill="none" stroke="#d9e021" stroke-miterlimit="10" stroke-width="0.75"/>
          <path id="Path_328" data-name="Path 328" d="M176.325,276.466s1.186,4.26,3.5,5.069" transform="translate(-167.981 -272.363)" fill="none" stroke="#d9e021" stroke-miterlimit="10" stroke-width="0.75"/>
          <path id="Path_329" data-name="Path 329" d="M175.486,281.5s1.186,4.26,3.5,5.069" transform="translate(-167.565 -274.865)" fill="none" stroke="#d9e021" stroke-miterlimit="10" stroke-width="0.75"/>
          <path id="Path_330" data-name="Path 330" d="M166.592,278.594s1.186,4.26,3.5,5.068" transform="translate(-163.147 -273.42)" fill="none" stroke="#d9e021" stroke-miterlimit="10" stroke-width="0.75"/>
          <path id="Path_331" data-name="Path 331" d="M172.843,276.466s1.186,4.26,3.5,5.069" transform="translate(-166.252 -272.363)" fill="none" stroke="#d9e021" stroke-miterlimit="10" stroke-width="0.75"/>
          <path id="Path_332" data-name="Path 332" d="M168.521,274.116s1.187,4.26,3.505,5.068" transform="translate(-164.105 -271.196)" fill="none" stroke="#d9e021" stroke-miterlimit="10" stroke-width="0.75"/>
          <path id="Path_333" data-name="Path 333" d="M174.334,276.209s1.186,4.26,3.5,5.068" transform="translate(-166.992 -272.235)" fill="none" stroke="#d9e021" stroke-miterlimit="10" stroke-width="0.75"/>
          <path id="Path_334" data-name="Path 334" d="M169.48,275.666s1.186,4.26,3.5,5.069" transform="translate(-164.581 -271.966)" fill="none" stroke="#d9e021" stroke-miterlimit="10" stroke-width="0.75"/>
          <path id="Path_335" data-name="Path 335" d="M168.64,280.7s1.187,4.26,3.505,5.068" transform="translate(-164.164 -274.467)" fill="none" stroke="#d9e021" stroke-miterlimit="10" stroke-width="0.75"/>
          <path id="Path_336" data-name="Path 336" d="M159.746,277.794s1.187,4.26,3.505,5.068" transform="translate(-159.746 -273.023)" fill="none" stroke="#d9e021" stroke-miterlimit="10" stroke-width="0.75"/>
          <path id="Path_337" data-name="Path 337" d="M166,275.666s1.187,4.26,3.505,5.069" transform="translate(-162.851 -271.966)" fill="none" stroke="#d9e021" stroke-miterlimit="10" stroke-width="0.75"/>
          <path id="Path_338" data-name="Path 338" d="M161.676,273.316s1.186,4.26,3.5,5.068" transform="translate(-160.705 -270.798)" fill="none" stroke="#d9e021" stroke-miterlimit="10" stroke-width="0.75"/>
          <path id="Path_339" data-name="Path 339" d="M179.416,272.515s1.186,4.26,3.505,5.069" transform="translate(-169.517 -270.4)" fill="none" stroke="#d9e021" stroke-miterlimit="10" stroke-width="0.75"/>
          <path id="Path_340" data-name="Path 340" d="M174.562,271.973s1.186,4.26,3.5,5.069" transform="translate(-167.106 -270.131)" fill="none" stroke="#d9e021" stroke-miterlimit="10" stroke-width="0.75"/>
          <path id="Path_341" data-name="Path 341" d="M173.723,277.009s1.186,4.26,3.5,5.068" transform="translate(-166.689 -272.633)" fill="none" stroke="#d9e021" stroke-miterlimit="10" stroke-width="0.75"/>
          <path id="Path_342" data-name="Path 342" d="M164.829,274.1s1.186,4.26,3.5,5.069" transform="translate(-162.271 -271.188)" fill="none" stroke="#d9e021" stroke-miterlimit="10" stroke-width="0.75"/>
          <path id="Path_343" data-name="Path 343" d="M171.08,271.973s1.186,4.26,3.5,5.069" transform="translate(-165.376 -270.131)" fill="none" stroke="#d9e021" stroke-miterlimit="10" stroke-width="0.75"/>
          <path id="Path_344" data-name="Path 344" d="M166.759,269.623s1.186,4.26,3.5,5.068" transform="translate(-163.23 -268.964)" fill="none" stroke="#d9e021" stroke-miterlimit="10" stroke-width="0.75"/>
          <path id="Path_345" data-name="Path 345" d="M175.092,271.206s1.186,4.26,3.5,5.068" transform="translate(-167.369 -269.75)" fill="none" stroke="#d9e021" stroke-miterlimit="10" stroke-width="0.75"/>
          <path id="Path_346" data-name="Path 346" d="M170.238,270.664s1.186,4.26,3.5,5.068" transform="translate(-164.958 -269.481)" fill="none" stroke="#d9e021" stroke-miterlimit="10" stroke-width="0.75"/>
          <path id="Path_347" data-name="Path 347" d="M169.4,275.7s1.186,4.26,3.5,5.069" transform="translate(-164.541 -271.982)" fill="none" stroke="#d9e021" stroke-miterlimit="10" stroke-width="0.75"/>
          <path id="Path_348" data-name="Path 348" d="M160.505,272.791s1.186,4.26,3.5,5.068" transform="translate(-160.123 -270.537)" fill="none" stroke="#d9e021" stroke-miterlimit="10" stroke-width="0.75"/>
          <path id="Path_349" data-name="Path 349" d="M166.756,270.664s1.186,4.26,3.5,5.068" transform="translate(-163.228 -269.481)" fill="none" stroke="#d9e021" stroke-miterlimit="10" stroke-width="0.75"/>
          <path id="Path_350" data-name="Path 350" d="M162.434,268.313s1.186,4.26,3.505,5.069" transform="translate(-161.081 -268.313)" fill="none" stroke="#d9e021" stroke-miterlimit="10" stroke-width="0.75"/>
        </g>
        <path id="Path_352" data-name="Path 352" d="M146.8,233.9s-1.5,57.744,0,60.369,38.526,7,42.267,0,3.366-60.369,0-60.369h-3.99s.5,19.686-1.995,20.123-25.684,12.832-27.679,3.5-2.12-23.623-2.12-23.623Z" transform="translate(-146.131 -233.905)" fill="#95ce67" stroke="#95ce67" stroke-miterlimit="10" stroke-width="3"/>
      </g>
    </g>
  </g>
</svg>
