<svg xmlns="http://www.w3.org/2000/svg" width="661.769" height="542.38" viewBox="0 0 661.769 542.38">
  <g id="ilus3" transform="translate(-438 -137.5)">
    <g id="Group_78" data-name="Group 78" transform="translate(438 137.5)">
      <rect id="Rectangle_105" data-name="Rectangle 105" width="131.351" height="138.272" transform="translate(175.137 179.666)" fill="#fff" stroke="#95ce67" stroke-miterlimit="10" stroke-width="2"/>
      <rect id="Rectangle_106" data-name="Rectangle 106" width="131.351" height="109.365" rx="0.492" transform="translate(387.56 209.175)" fill="#fff" stroke="#95ce67" stroke-miterlimit="10" stroke-width="2"/>
      <g id="Group_73" data-name="Group 73" transform="translate(283.505 91.539)">
        <g id="Group_70" data-name="Group 70">
          <rect id="Rectangle_107" data-name="Rectangle 107" width="131.351" height="227.001" fill="#fff"/>
          <rect id="Rectangle_108" data-name="Rectangle 108" width="131.351" height="227.001" fill="none" stroke="#95ce67" stroke-miterlimit="10" stroke-width="2"/>
        </g>
        <g id="Group_72" data-name="Group 72">
          <g id="Group_71" data-name="Group 71" opacity="0.76">
            <rect id="Rectangle_109" data-name="Rectangle 109" width="131.351" height="227.001" fill="none"/>
            <rect id="Rectangle_110" data-name="Rectangle 110" width="131.351" height="227.001" fill="none"/>
          </g>
        </g>
      </g>
      <g id="Group_75" data-name="Group 75" transform="translate(332.355 157.173)">
        <text id="_1" data-name="1" transform="translate(0 77.688)" fill="#faf8f0" stroke="#95ce67" stroke-miterlimit="10" stroke-width="0.75" font-size="67" font-family="SegoeUI, Segoe UI"><tspan x="0" y="0">1</tspan></text>
        <g id="Group_74" data-name="Group 74">
          <text id="_1-2" data-name="1" transform="translate(0 72)" fill="#95ce67" stroke="#95ce67" stroke-miterlimit="10" stroke-width="0.75" font-size="67" font-family="SegoeUI, Segoe UI"><tspan x="0" y="0">1</tspan></text>
        </g>
      </g>
      <g id="Group_76" data-name="Group 76" transform="translate(453.235 232.81)">
        <text id="_3" data-name="3" transform="translate(0 48.275)" fill="#faf8f0" stroke="#95ce67" stroke-miterlimit="10" stroke-width="0.75" font-size="43" font-family="SegoeUI, Segoe UI"><tspan x="0" y="0">3</tspan></text>
        <text id="_3-2" data-name="3" transform="translate(0 46)" fill="#95ce67" stroke="#95ce67" stroke-miterlimit="10" stroke-width="0.75" font-size="43" font-family="SegoeUI, Segoe UI"><tspan x="0" y="0">3</tspan></text>
      </g>
      <g id="Group_77" data-name="Group 77" transform="translate(222.075 219.842)">
        <text id="_2" data-name="2" transform="translate(0 49.48)" fill="#faf8f0" stroke="#95ce67" stroke-miterlimit="10" stroke-width="0.75" font-size="43" font-family="SegoeUI, Segoe UI"><tspan x="0" y="0">2</tspan></text>
        <text id="_2-2" data-name="2" transform="translate(0 46)" fill="#95ce67" stroke="#95ce67" stroke-miterlimit="10" stroke-width="0.75" font-size="43" font-family="SegoeUI, Segoe UI"><tspan x="0" y="0">2</tspan></text>
      </g>
      <path id="Path_354" data-name="Path 354" d="M728.783,422.882s-11.167-26.8-71.463-35.731-66.9,13.4-129.477,0-64.813,14.071-122.878,16.778-102.728-43.589-116.126-20.441-67-25.6-89.329-6.5,15.632,99.5,160.792,86.1,98.261,67,156.324,33.5,118.741,20.1,128.6-20.1,45.592,26.8,83.557,11.167S777.914,431.815,728.783,422.882Z" transform="translate(-100.817 -90.916)" fill="#95ce67" stroke="#95ce67" stroke-miterlimit="10" stroke-width="2"/>
      <text id="Bukalah_Warungmu" data-name="Bukalah Warungmu" transform="translate(0 463.938)" fill="#95ce67" font-size="45" font-family="CinecavXUI-Bold, Cinecav X UI" font-weight="700"><tspan x="0" y="0">Bukalah Warungmu</tspan></text>
      <text id="dan_jadi_nomor_satu" data-name="dan jadi nomor satu" transform="translate(222.335 533.38)" fill="#95ce67" font-size="37" font-family="CinecavXUI-Regular, Cinecav X UI"><tspan x="0" y="0">dan jadi nomor satu</tspan></text>
      <ellipse id="Ellipse_24" data-name="Ellipse 24" cx="29.56" cy="34.528" rx="29.56" ry="34.528" transform="translate(197.62 91.539)" fill="#95ce67"/>
      <ellipse id="Ellipse_25" data-name="Ellipse 25" cx="29.56" cy="34.528" rx="29.56" ry="34.528" transform="translate(319.621)" fill="#95ce67"/>
      <ellipse id="Ellipse_26" data-name="Ellipse 26" cx="29.56" cy="34.528" rx="29.56" ry="34.528" transform="translate(438.461 119.035)" fill="#95ce67"/>
    </g>
  </g>
</svg>
