<svg xmlns="http://www.w3.org/2000/svg" width="413.181" height="130.512" viewBox="0 0 413.181 130.512">
  <g id="logo2" transform="translate(-354.819 -615.5)">
    <g id="Group_68" data-name="Group 68" transform="translate(210.311 383.095)">
      <ellipse id="Ellipse_22" data-name="Ellipse 22" cx="7.473" cy="4.756" rx="7.473" ry="4.756" transform="translate(199.948 265.802)" fill="#618147"/>
      <path id="Path_290" data-name="Path 290" d="M220.788,335.168c-9.857,8.143-27.041,0-27.041,0s.9-51.429.041-56.513,12-7.421,12-7.421,14.785-.379,15,1.992S220.788,335.168,220.788,335.168Z" fill="#9cae8d"/>
    </g>
    <rect id="Rectangle_104" data-name="Rectangle 104" width="35.782" height="90.643" rx="2.168" transform="translate(373.988 649.546) rotate(3.481)" fill="#54971e"/>
    <g id="Group_67" data-name="Group 67" transform="translate(210.311 383.095)">
      <circle id="Ellipse_23" data-name="Ellipse 23" cx="15.429" cy="15.429" r="15.429" transform="translate(162.387 270.851)" fill="#c69c6d"/>
      <path id="Path_291" data-name="Path 291" d="M184.644,288.53s-2.357,8.464-6.965,10.071" fill="none" stroke="#d9e021" stroke-miterlimit="10" stroke-width="0.75"/>
      <path id="Path_292" data-name="Path 292" d="M189.5,287.988s-2.357,8.464-6.964,10.071" fill="none" stroke="#d9e021" stroke-miterlimit="10" stroke-width="0.75"/>
      <path id="Path_293" data-name="Path 293" d="M190.337,293.023s-2.357,8.465-6.964,10.072" fill="none" stroke="#d9e021" stroke-miterlimit="10" stroke-width="0.75"/>
      <path id="Path_294" data-name="Path 294" d="M199.231,290.115s-2.357,8.464-6.964,10.071" fill="none" stroke="#d9e021" stroke-miterlimit="10" stroke-width="0.75"/>
      <path id="Path_295" data-name="Path 295" d="M192.98,287.988s-2.357,8.464-6.964,10.071" fill="none" stroke="#d9e021" stroke-miterlimit="10" stroke-width="0.75"/>
      <path id="Path_296" data-name="Path 296" d="M197.3,285.637s-2.358,8.464-6.965,10.071" fill="none" stroke="#d9e021" stroke-miterlimit="10" stroke-width="0.75"/>
      <path id="Path_297" data-name="Path 297" d="M179.68,287.73s-2.357,8.464-6.964,10.071" fill="none" stroke="#d9e021" stroke-miterlimit="10" stroke-width="0.75"/>
      <path id="Path_298" data-name="Path 298" d="M184.535,287.187s-2.357,8.465-6.965,10.072" fill="none" stroke="#d9e021" stroke-miterlimit="10" stroke-width="0.75"/>
      <path id="Path_299" data-name="Path 299" d="M185.374,292.223s-2.357,8.464-6.964,10.071" fill="none" stroke="#d9e021" stroke-miterlimit="10" stroke-width="0.75"/>
      <path id="Path_300" data-name="Path 300" d="M194.268,289.315s-2.357,8.464-6.964,10.071" fill="none" stroke="#d9e021" stroke-miterlimit="10" stroke-width="0.75"/>
      <path id="Path_301" data-name="Path 301" d="M188.017,287.187s-2.357,8.465-6.964,10.072" fill="none" stroke="#d9e021" stroke-miterlimit="10" stroke-width="0.75"/>
      <path id="Path_302" data-name="Path 302" d="M192.338,284.837s-2.357,8.464-6.964,10.071" fill="none" stroke="#d9e021" stroke-miterlimit="10" stroke-width="0.75"/>
      <path id="Path_303" data-name="Path 303" d="M186.526,286.929s-2.358,8.465-6.965,10.072" fill="none" stroke="#d9e021" stroke-miterlimit="10" stroke-width="0.75"/>
      <path id="Path_304" data-name="Path 304" d="M191.38,286.387s-2.357,8.464-6.964,10.071" fill="none" stroke="#d9e021" stroke-miterlimit="10" stroke-width="0.75"/>
      <path id="Path_305" data-name="Path 305" d="M192.219,291.423s-2.357,8.464-6.964,10.071" fill="none" stroke="#d9e021" stroke-miterlimit="10" stroke-width="0.75"/>
      <path id="Path_306" data-name="Path 306" d="M201.113,288.514s-2.357,8.465-6.964,10.072" fill="none" stroke="#d9e021" stroke-miterlimit="10" stroke-width="0.75"/>
      <path id="Path_307" data-name="Path 307" d="M194.862,286.387s-2.357,8.464-6.964,10.071" fill="none" stroke="#d9e021" stroke-miterlimit="10" stroke-width="0.75"/>
      <path id="Path_308" data-name="Path 308" d="M199.183,284.037s-2.357,8.464-6.964,10.071" fill="none" stroke="#d9e021" stroke-miterlimit="10" stroke-width="0.75"/>
      <path id="Path_309" data-name="Path 309" d="M181.443,283.236s-2.357,8.465-6.964,10.072" fill="none" stroke="#d9e021" stroke-miterlimit="10" stroke-width="0.75"/>
      <path id="Path_310" data-name="Path 310" d="M186.3,282.694s-2.358,8.464-6.965,10.071" fill="none" stroke="#d9e021" stroke-miterlimit="10" stroke-width="0.75"/>
      <path id="Path_311" data-name="Path 311" d="M187.137,287.73s-2.358,8.464-6.965,10.071" fill="none" stroke="#d9e021" stroke-miterlimit="10" stroke-width="0.75"/>
      <path id="Path_312" data-name="Path 312" d="M196.031,284.821s-2.357,8.465-6.965,10.072" fill="none" stroke="#d9e021" stroke-miterlimit="10" stroke-width="0.75"/>
      <path id="Path_313" data-name="Path 313" d="M189.78,282.694s-2.357,8.464-6.965,10.071" fill="none" stroke="#d9e021" stroke-miterlimit="10" stroke-width="0.75"/>
      <path id="Path_314" data-name="Path 314" d="M194.1,280.343s-2.357,8.465-6.964,10.072" fill="none" stroke="#d9e021" stroke-miterlimit="10" stroke-width="0.75"/>
      <path id="Path_315" data-name="Path 315" d="M185.767,281.927S183.41,290.391,178.8,292" fill="none" stroke="#d9e021" stroke-miterlimit="10" stroke-width="0.75"/>
      <path id="Path_316" data-name="Path 316" d="M190.622,281.385s-2.357,8.464-6.964,10.071" fill="none" stroke="#d9e021" stroke-miterlimit="10" stroke-width="0.75"/>
      <path id="Path_317" data-name="Path 317" d="M191.461,286.42s-2.357,8.465-6.964,10.072" fill="none" stroke="#d9e021" stroke-miterlimit="10" stroke-width="0.75"/>
      <path id="Path_318" data-name="Path 318" d="M200.355,283.512s-2.357,8.464-6.964,10.071" fill="none" stroke="#d9e021" stroke-miterlimit="10" stroke-width="0.75"/>
      <path id="Path_319" data-name="Path 319" d="M194.1,281.385s-2.357,8.464-6.964,10.071" fill="none" stroke="#d9e021" stroke-miterlimit="10" stroke-width="0.75"/>
      <path id="Path_320" data-name="Path 320" d="M198.425,279.034s-2.357,8.464-6.964,10.071" fill="none" stroke="#d9e021" stroke-miterlimit="10" stroke-width="0.75"/>
      <path id="Path_321" data-name="Path 321" d="M176.216,277.809s2.357,8.464,6.964,10.071" fill="none" stroke="#d9e021" stroke-miterlimit="10" stroke-width="0.75"/>
      <path id="Path_322" data-name="Path 322" d="M171.361,277.267s2.358,8.464,6.965,10.071" fill="none" stroke="#d9e021" stroke-miterlimit="10" stroke-width="0.75"/>
      <path id="Path_323" data-name="Path 323" d="M170.522,282.3s2.357,8.465,6.965,10.072" fill="none" stroke="#d9e021" stroke-miterlimit="10" stroke-width="0.75"/>
      <path id="Path_324" data-name="Path 324" d="M161.628,279.394s2.357,8.464,6.965,10.071" fill="none" stroke="#d9e021" stroke-miterlimit="10" stroke-width="0.75"/>
      <path id="Path_325" data-name="Path 325" d="M167.879,277.267s2.357,8.464,6.965,10.071" fill="none" stroke="#d9e021" stroke-miterlimit="10" stroke-width="0.75"/>
      <path id="Path_326" data-name="Path 326" d="M163.558,274.916s2.357,8.464,6.964,10.072" fill="none" stroke="#d9e021" stroke-miterlimit="10" stroke-width="0.75"/>
      <path id="Path_327" data-name="Path 327" d="M181.179,277.009s2.357,8.464,6.964,10.071" fill="none" stroke="#d9e021" stroke-miterlimit="10" stroke-width="0.75"/>
      <path id="Path_328" data-name="Path 328" d="M176.325,276.466s2.357,8.465,6.964,10.072" fill="none" stroke="#d9e021" stroke-miterlimit="10" stroke-width="0.75"/>
      <path id="Path_329" data-name="Path 329" d="M175.486,281.5s2.357,8.464,6.964,10.072" fill="none" stroke="#d9e021" stroke-miterlimit="10" stroke-width="0.75"/>
      <path id="Path_330" data-name="Path 330" d="M166.592,278.594s2.357,8.464,6.964,10.071" fill="none" stroke="#d9e021" stroke-miterlimit="10" stroke-width="0.75"/>
      <path id="Path_331" data-name="Path 331" d="M172.843,276.466s2.357,8.465,6.964,10.072" fill="none" stroke="#d9e021" stroke-miterlimit="10" stroke-width="0.75"/>
      <path id="Path_332" data-name="Path 332" d="M168.521,274.116s2.358,8.464,6.965,10.071" fill="none" stroke="#d9e021" stroke-miterlimit="10" stroke-width="0.75"/>
      <path id="Path_333" data-name="Path 333" d="M174.334,276.209s2.357,8.464,6.964,10.071" fill="none" stroke="#d9e021" stroke-miterlimit="10" stroke-width="0.75"/>
      <path id="Path_334" data-name="Path 334" d="M169.48,275.666s2.357,8.464,6.964,10.072" fill="none" stroke="#d9e021" stroke-miterlimit="10" stroke-width="0.75"/>
      <path id="Path_335" data-name="Path 335" d="M168.64,280.7s2.358,8.464,6.965,10.071" fill="none" stroke="#d9e021" stroke-miterlimit="10" stroke-width="0.75"/>
      <path id="Path_336" data-name="Path 336" d="M159.746,277.794s2.358,8.464,6.965,10.071" fill="none" stroke="#d9e021" stroke-miterlimit="10" stroke-width="0.75"/>
      <path id="Path_337" data-name="Path 337" d="M166,275.666s2.358,8.464,6.965,10.072" fill="none" stroke="#d9e021" stroke-miterlimit="10" stroke-width="0.75"/>
      <path id="Path_338" data-name="Path 338" d="M161.676,273.316s2.357,8.464,6.964,10.071" fill="none" stroke="#d9e021" stroke-miterlimit="10" stroke-width="0.75"/>
      <path id="Path_339" data-name="Path 339" d="M179.416,272.515s2.357,8.465,6.965,10.072" fill="none" stroke="#d9e021" stroke-miterlimit="10" stroke-width="0.75"/>
      <path id="Path_340" data-name="Path 340" d="M174.562,271.973s2.357,8.464,6.964,10.072" fill="none" stroke="#d9e021" stroke-miterlimit="10" stroke-width="0.75"/>
      <path id="Path_341" data-name="Path 341" d="M173.723,277.009s2.357,8.464,6.964,10.071" fill="none" stroke="#d9e021" stroke-miterlimit="10" stroke-width="0.75"/>
      <path id="Path_342" data-name="Path 342" d="M164.829,274.1s2.357,8.465,6.964,10.072" fill="none" stroke="#d9e021" stroke-miterlimit="10" stroke-width="0.75"/>
      <path id="Path_343" data-name="Path 343" d="M171.08,271.973s2.357,8.464,6.964,10.072" fill="none" stroke="#d9e021" stroke-miterlimit="10" stroke-width="0.75"/>
      <path id="Path_344" data-name="Path 344" d="M166.759,269.623s2.357,8.464,6.964,10.071" fill="none" stroke="#d9e021" stroke-miterlimit="10" stroke-width="0.75"/>
      <path id="Path_345" data-name="Path 345" d="M175.092,271.206s2.357,8.464,6.964,10.071" fill="none" stroke="#d9e021" stroke-miterlimit="10" stroke-width="0.75"/>
      <path id="Path_346" data-name="Path 346" d="M170.238,270.664s2.357,8.464,6.964,10.071" fill="none" stroke="#d9e021" stroke-miterlimit="10" stroke-width="0.75"/>
      <path id="Path_347" data-name="Path 347" d="M169.4,275.7s2.357,8.465,6.964,10.072" fill="none" stroke="#d9e021" stroke-miterlimit="10" stroke-width="0.75"/>
      <path id="Path_348" data-name="Path 348" d="M160.505,272.791s2.357,8.464,6.964,10.071" fill="none" stroke="#d9e021" stroke-miterlimit="10" stroke-width="0.75"/>
      <path id="Path_349" data-name="Path 349" d="M166.756,270.664s2.357,8.464,6.964,10.071" fill="none" stroke="#d9e021" stroke-miterlimit="10" stroke-width="0.75"/>
      <path id="Path_350" data-name="Path 350" d="M162.434,268.313s2.357,8.464,6.965,10.072" fill="none" stroke="#d9e021" stroke-miterlimit="10" stroke-width="0.75"/>
    </g>
    <path id="Path_353" data-name="Path 353" d="M147.452,233.9s-2.973,114.74,0,119.955,76.553,13.908,83.986,0,6.689-119.955,0-119.955H223.51s.991,39.116-3.964,39.985-51.036,25.5-55,6.954-4.212-46.939-4.212-46.939Z" transform="translate(210.311 383.095)" fill="#faf8f0" stroke="#faf8f0" stroke-miterlimit="10" stroke-width="3"/>
    <g id="Group_69" data-name="Group 69" transform="translate(210.311 383.095)">
      <text id="buy" transform="translate(274.005 326.912)" fill="#faf8f0" font-size="68.061" font-family="CinecavXUI-Bold, Cinecav X UI" font-weight="700"><tspan x="0" y="0">buy</tspan></text>
      <text id="buy-2" data-name="buy" transform="translate(448.689 326.912)" fill="#faf8f0" font-size="68.061" font-family="CinecavXUI-Bold, Cinecav X UI" font-weight="700"><tspan x="0" y="0">buy</tspan></text>
      <text id="see" transform="translate(387.37 320.851)" fill="#faf8f0" font-size="42.121" font-family="CinecavXUI-Regular, Cinecav X UI"><tspan x="0" y="0">see</tspan></text>
    </g>
  </g>
</svg>
