<svg xmlns="http://www.w3.org/2000/svg" width="152.048" height="112.879" viewBox="0 0 152.048 112.879">
  <g id="logo3" transform="translate(-262.317 -615.5)">
    <g id="Group_68" data-name="Group 68" transform="translate(338.629 634.173)">
      <ellipse id="Ellipse_22" data-name="Ellipse 22" cx="4.023" cy="2.56" rx="4.023" ry="2.56" transform="translate(3.339)" fill="#618147"/>
      <path id="Path_290" data-name="Path 290" d="M208.306,305.645c-5.307,4.384-14.559,0-14.559,0s.483-27.689.022-30.426,6.461-4,6.461-4,7.96-.2,8.076,1.072S208.306,305.645,208.306,305.645Z" transform="translate(-193.747 -268.299)" fill="#9cae8d"/>
    </g>
    <rect id="Rectangle_104" data-name="Rectangle 104" width="19.265" height="48.801" rx="2.168" transform="translate(322.439 634.522) rotate(3.481)" fill="#54971e"/>
    <g id="Group_67" data-name="Group 67" transform="translate(320.323 635.525)">
      <circle id="Ellipse_23" data-name="Ellipse 23" cx="8.307" cy="8.307" r="8.307" transform="translate(1.422 1.367)" fill="#c69c6d"/>
      <path id="Path_291" data-name="Path 291" d="M181.429,288.53s-1.269,4.557-3.75,5.422" transform="translate(-168.024 -277.645)" fill="none" stroke="#d9e021" stroke-miterlimit="10" stroke-width="0.75"/>
      <path id="Path_292" data-name="Path 292" d="M186.283,287.988s-1.269,4.557-3.749,5.422" transform="translate(-170.265 -277.395)" fill="none" stroke="#d9e021" stroke-miterlimit="10" stroke-width="0.75"/>
      <path id="Path_293" data-name="Path 293" d="M187.122,293.023s-1.269,4.557-3.749,5.423" transform="translate(-170.653 -279.719)" fill="none" stroke="#d9e021" stroke-miterlimit="10" stroke-width="0.75"/>
      <path id="Path_294" data-name="Path 294" d="M196.016,290.115s-1.269,4.557-3.749,5.422" transform="translate(-174.758 -278.377)" fill="none" stroke="#d9e021" stroke-miterlimit="10" stroke-width="0.75"/>
      <path id="Path_295" data-name="Path 295" d="M189.765,287.988s-1.269,4.557-3.749,5.422" transform="translate(-171.873 -277.395)" fill="none" stroke="#d9e021" stroke-miterlimit="10" stroke-width="0.75"/>
      <path id="Path_296" data-name="Path 296" d="M194.087,285.637s-1.27,4.557-3.75,5.422" transform="translate(-173.867 -276.31)" fill="none" stroke="#d9e021" stroke-miterlimit="10" stroke-width="0.75"/>
      <path id="Path_297" data-name="Path 297" d="M176.465,287.73s-1.269,4.557-3.749,5.422" transform="translate(-165.733 -277.276)" fill="none" stroke="#d9e021" stroke-miterlimit="10" stroke-width="0.75"/>
      <path id="Path_298" data-name="Path 298" d="M181.32,287.187s-1.269,4.557-3.75,5.423" transform="translate(-167.974 -277.025)" fill="none" stroke="#d9e021" stroke-miterlimit="10" stroke-width="0.75"/>
      <path id="Path_299" data-name="Path 299" d="M182.159,292.223s-1.269,4.557-3.749,5.422" transform="translate(-168.362 -279.35)" fill="none" stroke="#d9e021" stroke-miterlimit="10" stroke-width="0.75"/>
      <path id="Path_300" data-name="Path 300" d="M191.053,289.315s-1.269,4.557-3.749,5.422" transform="translate(-172.467 -278.008)" fill="none" stroke="#d9e021" stroke-miterlimit="10" stroke-width="0.75"/>
      <path id="Path_301" data-name="Path 301" d="M184.8,287.187s-1.269,4.557-3.749,5.423" transform="translate(-169.582 -277.025)" fill="none" stroke="#d9e021" stroke-miterlimit="10" stroke-width="0.75"/>
      <path id="Path_302" data-name="Path 302" d="M189.123,284.837s-1.269,4.557-3.749,5.422" transform="translate(-171.576 -275.941)" fill="none" stroke="#d9e021" stroke-miterlimit="10" stroke-width="0.75"/>
      <path id="Path_303" data-name="Path 303" d="M183.311,286.929s-1.27,4.557-3.75,5.423" transform="translate(-168.893 -276.906)" fill="none" stroke="#d9e021" stroke-miterlimit="10" stroke-width="0.75"/>
      <path id="Path_304" data-name="Path 304" d="M188.165,286.387s-1.269,4.557-3.749,5.422" transform="translate(-171.134 -276.656)" fill="none" stroke="#d9e021" stroke-miterlimit="10" stroke-width="0.75"/>
      <path id="Path_305" data-name="Path 305" d="M189,291.423s-1.269,4.557-3.749,5.422" transform="translate(-171.521 -278.981)" fill="none" stroke="#d9e021" stroke-miterlimit="10" stroke-width="0.75"/>
      <path id="Path_306" data-name="Path 306" d="M197.9,288.514s-1.269,4.557-3.749,5.423" transform="translate(-175.627 -277.638)" fill="none" stroke="#d9e021" stroke-miterlimit="10" stroke-width="0.75"/>
      <path id="Path_307" data-name="Path 307" d="M191.647,286.387s-1.269,4.557-3.749,5.422" transform="translate(-172.741 -276.656)" fill="none" stroke="#d9e021" stroke-miterlimit="10" stroke-width="0.75"/>
      <path id="Path_308" data-name="Path 308" d="M195.968,284.037s-1.269,4.557-3.749,5.422" transform="translate(-174.736 -275.571)" fill="none" stroke="#d9e021" stroke-miterlimit="10" stroke-width="0.75"/>
      <path id="Path_309" data-name="Path 309" d="M178.228,283.236s-1.269,4.557-3.749,5.423" transform="translate(-166.547 -275.202)" fill="none" stroke="#d9e021" stroke-miterlimit="10" stroke-width="0.75"/>
      <path id="Path_310" data-name="Path 310" d="M183.083,282.694s-1.27,4.557-3.75,5.422" transform="translate(-168.788 -274.951)" fill="none" stroke="#d9e021" stroke-miterlimit="10" stroke-width="0.75"/>
      <path id="Path_311" data-name="Path 311" d="M183.922,287.73s-1.27,4.557-3.75,5.422" transform="translate(-169.175 -277.276)" fill="none" stroke="#d9e021" stroke-miterlimit="10" stroke-width="0.75"/>
      <path id="Path_312" data-name="Path 312" d="M192.816,284.821s-1.269,4.557-3.75,5.423" transform="translate(-173.28 -275.933)" fill="none" stroke="#d9e021" stroke-miterlimit="10" stroke-width="0.75"/>
      <path id="Path_313" data-name="Path 313" d="M186.565,282.694s-1.269,4.557-3.75,5.422" transform="translate(-170.395 -274.951)" fill="none" stroke="#d9e021" stroke-miterlimit="10" stroke-width="0.75"/>
      <path id="Path_314" data-name="Path 314" d="M190.886,280.343s-1.269,4.557-3.749,5.423" transform="translate(-172.39 -273.866)" fill="none" stroke="#d9e021" stroke-miterlimit="10" stroke-width="0.75"/>
      <path id="Path_315" data-name="Path 315" d="M182.552,281.927s-1.269,4.557-3.749,5.422" transform="translate(-168.543 -274.597)" fill="none" stroke="#d9e021" stroke-miterlimit="10" stroke-width="0.75"/>
      <path id="Path_316" data-name="Path 316" d="M187.407,281.385s-1.269,4.557-3.749,5.422" transform="translate(-170.784 -274.347)" fill="none" stroke="#d9e021" stroke-miterlimit="10" stroke-width="0.75"/>
      <path id="Path_317" data-name="Path 317" d="M188.246,286.42s-1.269,4.557-3.749,5.423" transform="translate(-171.171 -276.671)" fill="none" stroke="#d9e021" stroke-miterlimit="10" stroke-width="0.75"/>
      <path id="Path_318" data-name="Path 318" d="M197.14,283.512s-1.269,4.557-3.749,5.422" transform="translate(-175.277 -275.329)" fill="none" stroke="#d9e021" stroke-miterlimit="10" stroke-width="0.75"/>
      <path id="Path_319" data-name="Path 319" d="M190.889,281.385s-1.269,4.557-3.749,5.422" transform="translate(-172.391 -274.347)" fill="none" stroke="#d9e021" stroke-miterlimit="10" stroke-width="0.75"/>
      <path id="Path_320" data-name="Path 320" d="M195.21,279.034s-1.269,4.557-3.749,5.422" transform="translate(-174.386 -273.262)" fill="none" stroke="#d9e021" stroke-miterlimit="10" stroke-width="0.75"/>
      <path id="Path_321" data-name="Path 321" d="M176.216,277.809s1.269,4.557,3.749,5.422" transform="translate(-167.349 -272.696)" fill="none" stroke="#d9e021" stroke-miterlimit="10" stroke-width="0.75"/>
      <path id="Path_322" data-name="Path 322" d="M171.361,277.267s1.27,4.557,3.75,5.422" transform="translate(-165.108 -272.446)" fill="none" stroke="#d9e021" stroke-miterlimit="10" stroke-width="0.75"/>
      <path id="Path_323" data-name="Path 323" d="M170.522,282.3s1.269,4.557,3.75,5.423" transform="translate(-164.72 -274.77)" fill="none" stroke="#d9e021" stroke-miterlimit="10" stroke-width="0.75"/>
      <path id="Path_324" data-name="Path 324" d="M161.628,279.394s1.269,4.557,3.75,5.422" transform="translate(-160.615 -273.428)" fill="none" stroke="#d9e021" stroke-miterlimit="10" stroke-width="0.75"/>
      <path id="Path_325" data-name="Path 325" d="M167.879,277.267s1.269,4.557,3.75,5.422" transform="translate(-163.5 -272.446)" fill="none" stroke="#d9e021" stroke-miterlimit="10" stroke-width="0.75"/>
      <path id="Path_326" data-name="Path 326" d="M163.558,274.916s1.269,4.557,3.749,5.423" transform="translate(-161.506 -271.361)" fill="none" stroke="#d9e021" stroke-miterlimit="10" stroke-width="0.75"/>
      <path id="Path_327" data-name="Path 327" d="M181.179,277.009s1.269,4.557,3.749,5.422" transform="translate(-169.64 -272.327)" fill="none" stroke="#d9e021" stroke-miterlimit="10" stroke-width="0.75"/>
      <path id="Path_328" data-name="Path 328" d="M176.325,276.466s1.269,4.557,3.749,5.423" transform="translate(-167.399 -272.077)" fill="none" stroke="#d9e021" stroke-miterlimit="10" stroke-width="0.75"/>
      <path id="Path_329" data-name="Path 329" d="M175.486,281.5s1.269,4.557,3.749,5.423" transform="translate(-167.012 -274.401)" fill="none" stroke="#d9e021" stroke-miterlimit="10" stroke-width="0.75"/>
      <path id="Path_330" data-name="Path 330" d="M166.592,278.594s1.269,4.557,3.749,5.422" transform="translate(-162.906 -273.059)" fill="none" stroke="#d9e021" stroke-miterlimit="10" stroke-width="0.75"/>
      <path id="Path_331" data-name="Path 331" d="M172.843,276.466s1.269,4.557,3.749,5.423" transform="translate(-165.792 -272.077)" fill="none" stroke="#d9e021" stroke-miterlimit="10" stroke-width="0.75"/>
      <path id="Path_332" data-name="Path 332" d="M168.521,274.116s1.27,4.557,3.75,5.422" transform="translate(-163.797 -270.992)" fill="none" stroke="#d9e021" stroke-miterlimit="10" stroke-width="0.75"/>
      <path id="Path_333" data-name="Path 333" d="M174.334,276.209s1.269,4.557,3.749,5.422" transform="translate(-166.48 -271.958)" fill="none" stroke="#d9e021" stroke-miterlimit="10" stroke-width="0.75"/>
      <path id="Path_334" data-name="Path 334" d="M169.48,275.666s1.269,4.557,3.749,5.423" transform="translate(-164.239 -271.707)" fill="none" stroke="#d9e021" stroke-miterlimit="10" stroke-width="0.75"/>
      <path id="Path_335" data-name="Path 335" d="M168.64,280.7s1.27,4.557,3.75,5.422" transform="translate(-163.852 -274.032)" fill="none" stroke="#d9e021" stroke-miterlimit="10" stroke-width="0.75"/>
      <path id="Path_336" data-name="Path 336" d="M159.746,277.794s1.27,4.557,3.75,5.422" transform="translate(-159.746 -272.69)" fill="none" stroke="#d9e021" stroke-miterlimit="10" stroke-width="0.75"/>
      <path id="Path_337" data-name="Path 337" d="M166,275.666s1.27,4.557,3.75,5.423" transform="translate(-162.632 -271.707)" fill="none" stroke="#d9e021" stroke-miterlimit="10" stroke-width="0.75"/>
      <path id="Path_338" data-name="Path 338" d="M161.676,273.316s1.269,4.557,3.749,5.422" transform="translate(-160.637 -270.622)" fill="none" stroke="#d9e021" stroke-miterlimit="10" stroke-width="0.75"/>
      <path id="Path_339" data-name="Path 339" d="M179.416,272.515s1.269,4.557,3.75,5.423" transform="translate(-168.826 -270.253)" fill="none" stroke="#d9e021" stroke-miterlimit="10" stroke-width="0.75"/>
      <path id="Path_340" data-name="Path 340" d="M174.562,271.973s1.269,4.557,3.749,5.423" transform="translate(-166.585 -270.003)" fill="none" stroke="#d9e021" stroke-miterlimit="10" stroke-width="0.75"/>
      <path id="Path_341" data-name="Path 341" d="M173.723,277.009s1.269,4.557,3.749,5.422" transform="translate(-166.198 -272.327)" fill="none" stroke="#d9e021" stroke-miterlimit="10" stroke-width="0.75"/>
      <path id="Path_342" data-name="Path 342" d="M164.829,274.1s1.269,4.557,3.749,5.423" transform="translate(-162.092 -270.984)" fill="none" stroke="#d9e021" stroke-miterlimit="10" stroke-width="0.75"/>
      <path id="Path_343" data-name="Path 343" d="M171.08,271.973s1.269,4.557,3.749,5.423" transform="translate(-164.978 -270.003)" fill="none" stroke="#d9e021" stroke-miterlimit="10" stroke-width="0.75"/>
      <path id="Path_344" data-name="Path 344" d="M166.759,269.623s1.269,4.557,3.749,5.422" transform="translate(-162.983 -268.918)" fill="none" stroke="#d9e021" stroke-miterlimit="10" stroke-width="0.75"/>
      <path id="Path_345" data-name="Path 345" d="M175.092,271.206s1.269,4.557,3.749,5.422" transform="translate(-166.83 -269.648)" fill="none" stroke="#d9e021" stroke-miterlimit="10" stroke-width="0.75"/>
      <path id="Path_346" data-name="Path 346" d="M170.238,270.664s1.269,4.557,3.749,5.422" transform="translate(-164.589 -269.398)" fill="none" stroke="#d9e021" stroke-miterlimit="10" stroke-width="0.75"/>
      <path id="Path_347" data-name="Path 347" d="M169.4,275.7s1.269,4.557,3.749,5.423" transform="translate(-164.202 -271.722)" fill="none" stroke="#d9e021" stroke-miterlimit="10" stroke-width="0.75"/>
      <path id="Path_348" data-name="Path 348" d="M160.505,272.791s1.269,4.557,3.749,5.422" transform="translate(-160.096 -270.38)" fill="none" stroke="#d9e021" stroke-miterlimit="10" stroke-width="0.75"/>
      <path id="Path_349" data-name="Path 349" d="M166.756,270.664s1.269,4.557,3.749,5.422" transform="translate(-162.982 -269.398)" fill="none" stroke="#d9e021" stroke-miterlimit="10" stroke-width="0.75"/>
      <path id="Path_350" data-name="Path 350" d="M162.434,268.313s1.269,4.557,3.75,5.423" transform="translate(-160.987 -268.313)" fill="none" stroke="#d9e021" stroke-miterlimit="10" stroke-width="0.75"/>
    </g>
    <path id="Path_353" data-name="Path 353" d="M146.842,233.9s-1.6,61.775,0,64.582,41.215,7.488,45.217,0,3.6-64.582,0-64.582h-4.268s.534,21.06-2.134,21.527-27.477,13.728-29.611,3.744-2.268-25.271-2.268-25.271Z" transform="translate(166.862 383.095)" fill="#faf8f0" stroke="#faf8f0" stroke-miterlimit="10" stroke-width="3"/>
    <g id="Group_69" data-name="Group 69" transform="translate(262.317 685.379)">
      <text id="buy" transform="translate(0 34)" fill="#faf8f0" font-size="36" font-family="CinecavXUI-Bold, Cinecav X UI" font-weight="700"><tspan x="0" y="0">buy</tspan></text>
      <text id="buy-2" data-name="buy" transform="translate(94.048 34)" fill="#faf8f0" font-size="36" font-family="CinecavXUI-Bold, Cinecav X UI" font-weight="700"><tspan x="0" y="0">buy</tspan></text>
      <text id="see" transform="translate(61.034 31.197)" fill="#faf8f0" font-size="22" font-family="CinecavXUI-Regular, Cinecav X UI"><tspan x="0" y="0">see</tspan></text>
    </g>
  </g>
</svg>
